<svg height="512pt" viewBox="-123 0 512 512" width="512pt" xmlns="http://www.w3.org/2000/svg"><path d="m261.925781 4.746094c-2.796875-3.027344-6.726562-4.746094-10.847656-4.746094h-236.308594c-4.121093 0-8.050781 1.71875-10.847656 4.746094-2.792969 3.023437-4.199219 7.078125-3.875 11.183594l3.019531 38.222656h259.71875l3.015625-38.21875c.324219-4.109375-1.082031-8.164063-3.875-11.1875zm0 0"/><path d="m132.921875 290.460938c16.289063 0 29.539063-13.761719 29.539063-30.675782 0-10.113281-13.773438-37.625-29.539063-63.488281-15.761719 25.867187-29.535156 53.375-29.535156 63.488281 0 16.914063 13.25 30.675782 29.535156 30.675782zm0 0"/><path d="m71.605469 433.230469c-5.992188 0-11.839844-.734375-17.449219-2.117188v36.578125c0 24.433594 19.875 44.308594 44.304688 44.308594h68.925781c24.429687 0 44.304687-19.875 44.304687-44.308594v-36.578125c-5.609375 1.382813-11.457031 2.117188-17.449218 2.117188zm0 0"/><path d="m27.4375 362.871094c1.804688 22.890625 21.207031 40.820312 44.167969 40.820312h122.636719c22.960937 0 42.363281-17.929687 44.167968-40.820312l22.042969-279.179688h-255.058594zm70.476562-165.210938c11.230469-19.855468 22.292969-36.320312 22.757813-37.011718 2.746094-4.074219 7.335937-6.519532 12.25-6.519532s9.507813 2.445313 12.25 6.519532c.464844.691406 11.527344 17.15625 22.761719 37.011718 21.570312 38.140625 24.066406 53.726563 24.066406 62.125 0 33.203125-26.5 60.214844-59.078125 60.214844-32.574219 0-59.074219-27.011719-59.074219-60.214844 0-8.398437 2.496094-23.984375 24.066406-62.125zm0 0"/></svg>